<?xml version="1.0" encoding="UTF-8" standalone="no"?>
<!-- Created with Inkscape (http://www.inkscape.org/) -->

<svg
   width="24mm"
   height="24mm"
   viewBox="0 0 24 24"
   version="1.1"
   id="svg5"
   inkscape:version="1.1.2 (b8e25be833, 2022-02-05)"
   sodipodi:docname="SaveMap_modern_dark.svg"
   xmlns:inkscape="http://www.inkscape.org/namespaces/inkscape"
   xmlns:sodipodi="http://sodipodi.sourceforge.net/DTD/sodipodi-0.dtd"
   xmlns="http://www.w3.org/2000/svg"
   xmlns:svg="http://www.w3.org/2000/svg">
  <sodipodi:namedview
     id="namedview7"
     pagecolor="#ffffff"
     bordercolor="#666666"
     borderopacity="1.0"
     inkscape:pageshadow="2"
     inkscape:pageopacity="0.0"
     inkscape:pagecheckerboard="0"
     inkscape:document-units="mm"
     showgrid="false"
     inkscape:zoom="10.248373"
     inkscape:cx="46.446398"
     inkscape:cy="50.593398"
     inkscape:window-width="1680"
     inkscape:window-height="988"
     inkscape:window-x="-8"
     inkscape:window-y="-8"
     inkscape:window-maximized="1"
     inkscape:current-layer="layer1" />
  <defs
     id="defs2" />
  <g
     inkscape:label="Capa 1"
     inkscape:groupmode="layer"
     id="layer1">
    <path
       style="fill:none;stroke:#303030;stroke-width:1.5"
       id="path1980"
       sodipodi:type="arc"
       sodipodi:cx="-7.8382483"
       sodipodi:cy="-14.414989"
       sodipodi:rx="3.6245472"
       sodipodi:ry="3.6569853"
       sodipodi:start="2.6179939"
       sodipodi:end="0.52359878"
       sodipodi:arc-type="arc"
       d="m -10.977198,-12.586497 a 3.6245472,3.6569853 0 0 1 0.809136,-4.629906 3.6245472,3.6569853 0 0 1 4.6596278,0 3.6245472,3.6569853 0 0 1 0.8091359,4.629906"
       sodipodi:open="true" />
    <path
       style="fill:none;stroke:#303030;stroke-width:1.5;stroke-linecap:butt;stroke-linejoin:miter;stroke-miterlimit:4;stroke-dasharray:none;stroke-opacity:1"
       d="m -10.990107,-12.599406 3.1245123,5.4118144"
       id="path2724" />
    <path
       style="fill:none;stroke:#303030;stroke-width:1.5;stroke-linecap:butt;stroke-linejoin:miter;stroke-miterlimit:4;stroke-dasharray:none;stroke-opacity:1"
       d="m -4.6863897,-12.599406 -3.153387,5.4118144"
       id="path2726" />
    <circle
       style="fill:#303030;fill-opacity:1;stroke:none;stroke-width:1.41732;stroke-miterlimit:4;stroke-dasharray:none;stroke-opacity:1"
       id="path3080"
       cx="-7.8225822"
       cy="-14.535031"
       r="1.5490263" />
    <rect
       style="fill:none;stroke:#4694b2;stroke-width:0.742863;stroke-linejoin:round;stroke-miterlimit:4;stroke-dasharray:none;stroke-opacity:1"
       id="rect3708-4"
       width="9.5086412"
       height="10.152457"
       x="-23.363855"
       y="-2.7106302"
       rx="1.0604861"
       ry="1.0865425" />
    <rect
       style="fill:none;stroke:#4694b2;stroke-width:1.50074;stroke-linejoin:round;stroke-miterlimit:4;stroke-dasharray:none;stroke-opacity:1"
       id="rect3708-4-5"
       width="22.499264"
       height="22.499262"
       x="0.75037003"
       y="0.75037003"
       rx="2.5093131"
       ry="2.4079297" />
    <path
       id="rect3735-4"
       style="fill:#f0f0f0;fill-opacity:1;stroke:none;stroke-width:0.495241;stroke-linejoin:round;stroke-miterlimit:4;stroke-dasharray:none"
       d="m -21.140878,3.4108169 c -0.241331,0 -0.435271,0.15008 -0.435271,0.33661 v 2.784767 c 0,0.186523 0.19394,0.33661 0.435271,0.33661 h 5.067522 c 0.241331,0 0.435272,-0.150079 0.435272,-0.33661 v -2.784767 c 0,-0.186523 -0.193941,-0.33661 -0.435272,-0.33661 z m 0.870542,0.723516 h 0.731255 c 0.189404,0 0.341446,0.135461 0.341446,0.304691 v 1.38126 c 0,0.169227 -0.152044,0.305657 -0.341446,0.305657 h -0.731255 c -0.189404,0 -0.342414,-0.136434 -0.342414,-0.305657 v -1.38126 c 0,-0.169228 0.153017,-0.304691 0.342414,-0.304691 z" />
    <path
       id="rect3710-8"
       style="fill:#4694b2;fill-opacity:1;stroke:none;stroke-width:0.495241;stroke-linejoin:round;stroke-miterlimit:4;stroke-dasharray:none"
       d="m -21.547131,-2.4759721 c -0.293257,0 -0.529096,0.178325 -0.529096,0.399481 v 3.658213 c 0,0.221147 0.235839,0.399481 0.529096,0.399481 h 5.875192 c 0.293258,0 0.529096,-0.178325 0.529096,-0.399481 v -3.658213 c 0,-0.221147 -0.235838,-0.399481 -0.529096,-0.399481 z m 0.461386,0.990482 h 4.95242 v 0.49524396 h -4.95242 z m 0,0.99048496 h 4.95242 V 2.3585606e-4 h -4.95242 z m 0,0.990484 h 4.95242 v 0.495241 h -4.95242 z" />
    <g
       stroke-linecap="round"
       id="g3417"
       transform="matrix(1.1149721,0,0,1.1149721,-32.680037,11.278029)">
      <rect
         fill="#6d97c4"
         fill-rule="evenodd"
         height="20.5"
         rx="1.8890001"
         ry="1.5"
         stroke="#415a75"
         stroke-linejoin="round"
         stroke-width="0.8"
         width="19.200001"
         x="2.4000001"
         y="1.4"
         id="rect3403" />
      <g
         stroke="#666666"
         id="g3411">
        <rect
           fill="#ededed"
           fill-rule="evenodd"
           height="9"
           rx="0.5"
           stroke-linejoin="round"
           stroke-width="0.5"
           width="14"
           x="5"
           y="2"
           id="rect3405" />
        <path
           d="M 7,4.5 H 17"
           fill="none"
           id="path3407" />
        <path
           d="M 6.01,14.517 H 18 V 21.5 H 6.01 Z"
           fill="#ededed"
           fill-rule="evenodd"
           stroke-linejoin="round"
           stroke-width="0.6"
           id="path3409" />
      </g>
      <path
         d="m 7.009,15.41 h 3.993 v 4.969 H 7.009 Z"
         fill="#415a75"
         fill-rule="evenodd"
         stroke="#e6e6e6"
         stroke-linejoin="round"
         stroke-width="0.996"
         id="path3413" />
      <path
         d="M 7,6.5 H 17 M 7,8.5 H 17"
         fill="none"
         stroke="#666666"
         id="path3415" />
    </g>
    <path
       style="fill:#3fbf1f;fill-opacity:1;stroke:none;stroke-width:0.391999px;stroke-linecap:butt;stroke-linejoin:miter;stroke-opacity:1"
       d="M 20.03873,-3.4112827 15.313108,-11.5963 c -5.6732911,-9.826426 15.299311,-9.340024 9.906848,0 -2.935422,5.0842983 -5.142975,8.1850173 -5.142975,8.1850173"
       id="path3628"
       sodipodi:nodetypes="cssc" />
    <path
       style="fill:none;stroke:#6ea664;stroke-width:3.239;stroke-linecap:butt;stroke-linejoin:miter;stroke-miterlimit:4;stroke-dasharray:none;stroke-opacity:1"
       d="m 7.663306,10.837223 3.904154,6.762189"
       id="path2724-8" />
    <path
       style="fill:none;stroke:#6ea664;stroke-width:3.239;stroke-linecap:butt;stroke-linejoin:miter;stroke-miterlimit:4;stroke-dasharray:none;stroke-opacity:1"
       d="m 16.416215,10.837223 -3.940231,6.762189"
       id="path2726-1" />
    <circle
       style="fill:none;fill-opacity:1;stroke:#6ea664;stroke-width:3.23905;stroke-miterlimit:4;stroke-dasharray:none;stroke-opacity:1"
       id="path5402"
       cx="12.0326"
       cy="8.5996361"
       r="4.9078245" />
    <path
       style="fill:#6ea664;fill-opacity:1;stroke:none;stroke-width:0.519654px;stroke-linecap:butt;stroke-linejoin:miter;stroke-opacity:1"
       d="m 7.9518381,14.630914 4.0474879,7.010458 4.281735,-7.416187 z"
       id="path5641" />
  </g>
</svg>
